/* XPM */
static char *MTIxNDM5ODIwLWhvaGUtYXVmbG8lQ0MlODhzdW5nLXZvbi16aWVnZWwtdGV4dHVyLTJkLWRhcnN0ZWxsdW5n[] = {
/* columns rows colors chars-per-pixel */
"40 40 188 2 ",
"   c #2E220B",
".  c #34260D",
"X  c #36290E",
"o  c #382A0D",
"O  c #2B261E",
"+  c #352A13",
"@  c #3C2F15",
"#  c #30291C",
"$  c #2D2820",
"%  c #393226",
"&  c #373229",
"*  c #463411",
"=  c #483611",
"-  c #4C3914",
";  c #523D14",
":  c #473A22",
">  c #4E3F23",
",  c #544017",
"<  c #5D4516",
"1  c #5C4618",
"2  c #4F4126",
"3  c #564525",
"4  c #584725",
"5  c #5E4B28",
"6  c #81776B",
"7  c #867C6C",
"8  c #867E71",
"9  c #C3912F",
"0  c #C69431",
"q  c #CA9631",
"w  c #CD9932",
"e  c #D29D32",
"r  c #D7A034",
"t  c #DEA636",
"y  c #EAAE38",
"u  c #EFB23A",
"i  c #F2B43A",
"p  c #FFBE3D",
"a  c #8E826F",
"s  c #8A8173",
"d  c #928777",
"f  c #91877A",
"g  c #968B7A",
"h  c #9A8E7D",
"j  c #9C917F",
"k  c #DDAD45",
"l  c #F4BC46",
"z  c #FFBF40",
"x  c #FFC041",
"c  c #FFC54A",
"v  c #FFC852",
"b  c #FED46C",
"n  c #FFD973",
"m  c #FFDD7A",
"M  c #9D9282",
"N  c #A19585",
"B  c #A59989",
"V  c #AA9D8B",
"C  c #B3A895",
"Z  c #BCAE9B",
"A  c #BFB09D",
"S  c #C4B49E",
"D  c #C6B6A1",
"F  c #C8B7A1",
"G  c #C7B8A3",
"H  c #CABBA5",
"J  c #C6BAA9",
"K  c #CCBEAA",
"L  c #CDBEAA",
"P  c #CCBFAA",
"I  c #CDBFAA",
"U  c #CCBEAB",
"Y  c #CDBEAB",
"T  c #CDBFAB",
"R  c #CEBFAA",
"E  c #CFBFAA",
"W  c #CEBFAB",
"Q  c #CEBEAA",
"!  c #CDBEA9",
"~  c #CBBEAD",
"^  c #CBBEAE",
"/  c #CDBFAC",
"(  c #CCBFAC",
")  c #CEBFAC",
"_  c #CEBFAD",
"`  c #CCBFAF",
"'  c #CCBDA9",
"]  c #CEC0A9",
"[  c #CFC0A9",
"{  c #CDC0AB",
"}  c #CEC0AA",
"|  c #CEC0AB",
" . c #CFC0AB",
".. c #CFC1AB",
"X. c #CEC1AB",
"o. c #CDC0AC",
"O. c #CDC0AD",
"+. c #CEC0AC",
"@. c #CFC0AC",
"#. c #CFC1AC",
"$. c #CEC0AD",
"%. c #CEC1AD",
"&. c #CFC1AD",
"*. c #CFC1AD",
"=. c #CFC2AC",
"-. c #CFC2AD",
";. c #CDC0AF",
":. c #CFC0AE",
">. c #CEC1AE",
",. c #CFC1AE",
"<. c #CEC1AF",
"1. c #CFC1AF",
"2. c #CEC2AE",
"3. c #CFC2AE",
"4. c #CFC2AF",
"5. c #CEC1AC",
"6. c #D0C1AB",
"7. c #D0C1AC",
"8. c #D0C1AD",
"9. c #D0C0AC",
"0. c #D0C2AC",
"q. c #D0C2AD",
"w. c #D1C2AD",
"e. c #D1C3AD",
"r. c #D0C1AF",
"t. c #D0C2AE",
"y. c #D1C3AE",
"u. c #D0C2AF",
"i. c #D1C2AF",
"p. c #D0C3AF",
"a. c #D1C3AF",
"s. c #D1C2AE",
"d. c #D2C3AF",
"f. c #D2C3AC",
"g. c #D1C4AF",
"h. c #D1C5AF",
"j. c #D2C4AE",
"k. c #D2C4AF",
"l. c #D0C2AE",
"z. c #CFC2B1",
"x. c #CCC0B0",
"c. c #CEC2B1",
"v. c #D0C2B0",
"b. c #D0C3B0",
"n. c #D1C3B0",
"m. c #D1C3B1",
"M. c #D1C3B2",
"N. c #D1C4B0",
"B. c #D1C4B1",
"V. c #D1C5B0",
"C. c #D2C4B0",
"Z. c #D2C5B0",
"A. c #D3C5B0",
"S. c #D2C4B1",
"D. c #D2C5B1",
"F. c #D3C5B1",
"G. c #D3C4B1",
"H. c #D3C6B1",
"J. c #D3C7B1",
"K. c #D0C4B2",
"L. c #D1C4B2",
"P. c #D1C5B3",
"I. c #D1C5B3",
"U. c #D2C5B2",
"Y. c #D3C5B2",
"T. c #D2C5B3",
"R. c #D3C6B2",
"E. c #D2C6B3",
"W. c #D4C6B2",
"Q. c #D4C7B3",
"!. c #D4C7B1",
"~. c #D1C5B4",
"^. c #D3C6B5",
"/. c #D3C7B6",
"(. c #D2C5B4",
"). c #D4C7B5",
"_. c #D5C7B4",
"`. c #D4C7B6",
"'. c #D2C5B2",
"]. c #D5C9B3",
"[. c #D5C8B4",
"{. c #D6C9B5",
"}. c #D6C9B7",
"|. c #D7CAB7",
" X c #D5C8B6",
".X c #D7CAB8",
"XX c #D7CCBA",
"oX c #D6CAB8",
/* pixels */
"S.H 6.j.T ' G u.S.E.j. .4.E.&.{ J &.S.E.&.T  .j.&.! ' &.S./.S.' 6.j. .T H j.S.E.",
"&.H T T S.H T T 4. . .H H  .&.' H  .0. .T ' ! !  .H O.&.j.&.&.H ! ! u.G ' &.j.{ ",
"u.' T /.S. .j. .^.S.S.H  .S.XX&.j.4.].j.&.H  .6.S.S.^.S.E.E.j.' T j.S.&./.z.XX&.",
"&.H b.&.T ! S.H O.' &.H &.j.z./.&.' ' T  .H T  .' &.S.&.' O.&.H  . .H H S.S.z.' ",
"' &. .! j.H &.' ' J ' T { &.j. . .H T H ' ' T ! u.T ` T  .' J  .T ! 6.H u.` T H ",
"' &.0. .S.&./.&./.O.T &.4.&.S.4.z.S.z.&.' ` 6.6.b.u.b./.z.z.' &.&. .S. .S._ _.` ",
"` T S.u.S.G ' J &.` &.&. .j. .' ' ' ` T ~ ` u.u.&.T T H  .` &.O.u. .b.H T H _ ! ",
"' D H T j. .!.&.&.&. .D H  .4. .E.&.u.T ' F H E u._ S.6.u. .T J ! T j.T b.T u.T ",
"H G !  . .H E.]  .H  .S !  . .' j.] ! ! ] H H ] T T j.u.! ! ! G ! ]  .H ].! 6.G ",
"H D S G  .' 4.]  .H H G S H  .] T ]  .{ H S S G ! T  . .T T ! G S D  .! 6.! u.H ",
"j.H 6.6. .{ ' j.E.E.E. .T  .&. .! j.S.S.0.[ !  .6.! T j.!.!.!.! !  .u. .! j.!.!.",
"u.! 6.! 4.H &. .j.&.&. . .&.&.' ' &.j.j.6.!  . .6.T T 6.!.u._ !  . .j.H T T S.u.",
" .D ! T  .F T H j.T O.D H  .&.H H '  . .' D H !  .H T T ` T T G H !  .D  .H S.H ",
"S.T S.S.S. .].T &.&.S.T &.j.&./.S.&.O.&.&.' u.u.j.S.S.b.u.u.S.6.&. .&. .S.z.z.~ ",
"' ` u./.S.H z.T &.' ~ ' &.` &.&. .T { ' ' ' T T &.^./.z.&.T ' ` ' T ' ' z.&.z.' ",
"' T &.b.S.T &.` z.O.' ~ &.&.z.&.&.` z.~ ' '  . .z.z./.&.z.` ' T  .{ &.O.z.O.S.~ ",
"j.&.!.j.S.H &.H z.&.S.j.j.S.4. .' ' u.` u.6.j.S.j.&.&.' z.S.z.&.].j.S.T &.H S. .",
"J S G H u.H b.H ' H H S D H  .H &.' T H ! S S !  .H  .H ' H H S S H 6.G u.H T G ",
"H S T  .T H }.6. .H ] S  . . .' d.6.T ! H S ! 6.{  .S.0.]  .T D ! 6.T H ]. .6.G ",
"6.H G H S. .!.6.j. . .H D ] j.6.u.u.6.T ] H S !  .j.j.j. . . .H G H j.E j.6.j. .",
"6.S H ! H S S 6.4.4. .G H T ! G S 6.` &.T D H ! ] D D ] &.&.&.H H ! H H S &.&.4.",
"!.u.!.d.}.u.].].XX^.}.S.j.S.].j.S.].}./.}.S.d.].].S.S./.|.}.^.S.!.j.].u.S.S.XXS.",
"! S H !  .D  .J &.' T S H !  .G H D G D A Z A G T H '  .&.&.' D G T  .D  .H S.H ",
"u.! u.E u.T S.' &.&.j.H 6.6. .J C & O O O O O V J T 4.&.&.&.&.'  . .&.T S.H &.' ",
"E u.u.u.S. .^.4.z.&.&.4.j.&.V % - 0 e r w r w 3 # j x.z.S.&.O.z.4.0.0. .^.4.z.&.",
"H T  .&.S.H O.' &.J J ' ' B 2 w e 0 9 9 9 9 9 w e 4 M ' &.~ J '  .H j.H z.z./.J ",
"` ~ z.! S.H { J &.' &. .V : r i q u i i i i i w i t 3 h T T T T  . .j.H &.z.z.H ",
"! H T T j. .j.T &. . .D M . u w i x p p p p p i b c - s T u.T H !  .j. .S.4.S.T ",
"H S G H H H S.H H H H j 2 w q u x p p p p p p p c b k 5 d ' H S G ! ! G j.H  .D ",
"! H H H E.&.}.j.j.{  .g o u 9 p x p p p p p p p p n v ; 7 &.T H G H j.u.}. .].H ",
"6.G H T ] H G &.j.j.4.g o u 9 i p p p p p p p p p n v ; 8 u.u.H ' ]  .H G u.4.j.",
"j.! j. .j.H  .4.E.j.=.h o u 9 p p p p p p p p p p n v ; 8 j.u.&. . .j.H  . .E.&.",
"4.H  .j.S. .S.4.].E.S.g o i 9 p p p p p p p p p p n v , 8 S.z.!  .j.j. .S.&.oX .",
"T D T H H G 4.D H H T d o i 0 i p p p p p p p p p n v ; 6 ' ' J H H H D  .D H J ",
"` &.u.! z.' S.&.&.~ O.J g * y q p p p p p p p p n v < 7 J &.' &. .! u.! 4. .O.' ",
"' 6.u.&./.&.z.&.^.x.O.&.B   p l n x p p p p p n v p = f z.z.O.&.&. .S. ./.z./.&.",
"T ' !.&.&.D H D ' ' '  .J g - i v m m m m m m v p 1 7 A { H { '  . . .D H J { J ",
"` H j.}..Xu.}.u.S.&.&.H ! H j + = l c c c c c ,   d z.4.z.4.4.H  . .J. .}.4.S.j.",
"F S G T H S j.H H D H S H H D M g @ . . . . o a M S 4.] G H H S S H H J j.H H S ",
"H G S ! &.T j.H  .H H D D H  .u.H V M M M j j S  .=.4. .{ H H G S H 0.] S.H 4.D "
};
