/* XPM */
static char *MTIxNDM5ODIwLWhvaGUtYXVmbG8lQ0MlODhzdW5nLXZvbi16aWVnZWwtdGV4dHVyLTJkLWRhcnN0ZWxsdW5n[] = {
/* columns rows colors chars-per-pixel */
"40 40 193 2 ",
"   c #251711",
".  c #261912",
"X  c #2B1D15",
"o  c #2E2017",
"O  c #2F2118",
"+  c #3C2616",
"@  c #3E2816",
"#  c #33251B",
"$  c #3D2718",
"%  c #37291E",
"&  c #3B2B1E",
"*  c #3C2D21",
"=  c #3F3023",
"-  c #432B16",
";  c #442C1A",
":  c #4B2F18",
">  c #4C2F17",
",  c #47301E",
"<  c #4E311A",
"1  c #54351B",
"2  c #593619",
"3  c #57381F",
"4  c #5D391C",
"5  c #633A16",
"6  c #643D1C",
"7  c #693E1A",
"8  c #6D3E17",
"9  c #703F16",
"0  c #483728",
"q  c #4B3320",
"w  c #503621",
"e  c #543822",
"r  c #5B3C23",
"t  c #6F4017",
"y  c #67401E",
"u  c #6B411C",
"i  c #744217",
"p  c #7A4516",
"a  c #74431A",
"s  c #7B461A",
"d  c #7C491D",
"f  c #52402F",
"g  c #5D4229",
"h  c #564230",
"j  c #5A4634",
"k  c #654123",
"l  c #6B4322",
"z  c #6D4B2C",
"x  c #66472C",
"c  c #744926",
"v  c #7B4D26",
"b  c #754C29",
"n  c #7A4E29",
"m  c #714725",
"M  c #7F5027",
"N  c #7E512A",
"B  c #684C34",
"V  c #6A543D",
"C  c #7A5534",
"Z  c #7D5B3C",
"A  c #765333",
"S  c #7B5E44",
"D  c #765A41",
"F  c #7F6044",
"G  c #844B1A",
"H  c #8A4E1A",
"J  c #8B4C16",
"K  c #8E511C",
"L  c #915017",
"P  c #93541D",
"I  c #99561A",
"U  c #9B5A1E",
"Y  c #995416",
"T  c #A35E1E",
"R  c #A95F1A",
"E  c #A6611F",
"W  c #AC621E",
"Q  c #B2651D",
"!  c #824F22",
"~  c #845126",
"^  c #84552B",
"/  c #89562B",
"(  c #87582E",
")  c #8C5A2D",
"_  c #925724",
"`  c #925C2E",
"'  c #995A23",
"]  c #855B34",
"[  c #8B5C32",
"{  c #855D39",
"}  c #8B5F38",
"|  c #935E31",
" . c #985F30",
".. c #8C623A",
"X. c #83603E",
"o. c #956134",
"O. c #9B6535",
"+. c #9F6837",
"@. c #96653A",
"#. c #9C6738",
"$. c #96683E",
"%. c #9C6A3E",
"&. c #A16633",
"*. c #A36836",
"=. c #AA6B36",
"-. c #A36B39",
";. c #AA6E3A",
":. c #AD713B",
">. c #B3743D",
",. c #B8773F",
"<. c #BB793F",
"1. c #836344",
"2. c #8A6A4C",
"3. c #886849",
"4. c #946B44",
"5. c #9B6E44",
"6. c #9F7043",
"7. c #9C734C",
"8. c #93734F",
"9. c #8A6E52",
"0. c #8E7256",
"q. c #937555",
"w. c #9C7A55",
"e. c #95795C",
"r. c #9C7D5B",
"t. c #987658",
"y. c #A57141",
"u. c #A2764B",
"i. c #B77740",
"p. c #BB7941",
"a. c #A37C54",
"s. c #A17E5B",
"d. c #8D7E6C",
"f. c #997F66",
"g. c #947C65",
"h. c #9F815E",
"j. c #A2815B",
"k. c #998067",
"l. c #91816E",
"z. c #9F8770",
"x. c #9E8F7D",
"c. c #A58364",
"v. c #AA8A65",
"b. c #A3876C",
"n. c #A98C6D",
"m. c #B38F66",
"M. c #B8966E",
"N. c #A58D75",
"B. c #AB9075",
"V. c #A7937D",
"C. c #AA937A",
"Z. c #B69771",
"A. c #BC9D75",
"S. c #A39382",
"D. c #AD9984",
"F. c #AE9E8A",
"G. c #B29B82",
"H. c #B29F89",
"J. c #AEA08C",
"K. c #B4A38D",
"L. c #B9A58C",
"P. c #B3A490",
"I. c #BCAC97",
"U. c #B8A894",
"Y. c #BEB19F",
"T. c #C0AD96",
"R. c #C2B39D",
"E. c #C6B6A1",
"W. c #C8B7A0",
"Q. c #C7B9A3",
"!. c #CABBA5",
"~. c #CCBEAA",
"^. c #C6BAA9",
"/. c #CEC0AB",
"(. c #CEC0AA",
"). c #CEC1AC",
"_. c #CFC1AE",
"`. c #CEC1AD",
"'. c #CEC1AC",
"]. c #D0C3AF",
"[. c #D1C2AD",
"{. c #D2C4AF",
"}. c #D0C2AE",
"|. c #CEC2B1",
" X c #D0C3B0",
".X c #D2C5B1",
"XX c #D2C5B2",
"oX c #D3C6B3",
"OX c #D1C5B2",
"+X c #D4C7B2",
"@X c #D2C5B2",
"#X c #D5C8B6",
"$X c #D6CAB9",
/* pixels */
".X!.]..X~.~.!.].#X#X~.B.7.!.~.~.!.~.#XXXXX~.~..X{.!.~. X#X#X.X!.~.+X~.~.~.{..X#X",
"`.!.~.!..X!.~.~.~.~.G.' L 4.I.^.~.~..X~.~.!.~.~..X!.~.~..X~.~.!.~.~.{.W.~.]. X~.",
" X~.~.#X.X~..X`.#XT. .9 8 ! H ~ 5.g.K.~.~.~.~.~..X~.$X X#X#XXX~.~.+X#X~..X X$X`.",
"`.!. X`.~.~..X!.W.5.! 6 6 8 H H Y Y T ' O.7.C.T.!.H.t.b.E.~. X!.~.~.~.!..X.X.X~.",
"~.`.[.~..X!.`.~.c.K 8 : : l 8 ! G H _ W T Q R J ! 5 2 5 } L.~.~.~.~.{.!.XX~.~.!.",
"~.~.[.~..X]..XU._ 9 1 ; | *.y 8 H H R T ' P _ H U R _ Y 6 [ H.~..X~.XX~.$X~.$X~.",
"~.~.{.[. X!.~.| 9 r $ b >.;.*.y 8 K K Q I W K H P U Q ' L 7 / G..X~..X!.~.^.~.~.",
"~.^.~.~. X].r.K 5 $ 3  .;.;.*.` 6 u K d T T _ G H _ K H _ s 6 ~ G.!..X~.XX~.{.~.",
"!.Q.~.~.~.B._ 8 - 1 *.p.i.p.i.,. .7 u K P T K T P T ' T P P p 7 ! B.!.!..X~.~.!.",
"!.Q.R.W.T.` a < ; | >.i.:.i.i.i.;.) l t K p K T U ' T P H P U I 7 v B.!.{.~.{.!.",
".X!.[.~.5.G 2 $ c =.;.;.;.:.;.;.;.*.` l a H P T U U U E K ' P U H 6 v c.Q..X+X.X",
" X!.[.v.H 5 - r :.p.i.i.i.i.p.i.p.p.>. .u a K d U P U P W E W T R I 6 d s.!..X{.",
"~.Q.K._ 9 - ; &.i.i.i.i.i.:.i.:.:.;.;.*.( u a P p d U U U U U E K U G 7 d w.~.!.",
".XQ.%.s > - ) ;.-.*.;.;.;.;.:.>.i.>.;.>.=./ u a H G K U ' E U E W U W L k G s.!.",
"!.s._ 2 + c ;.>.;.i.i.i.i.i.i.i.i.i.i.i.,.=./ y s K I E W E W U R P L J p c P r.",
"K._ 5 + e &.:.:.i.i.;.;.;.:.:.;.;.;.;.*.-.*. .v 7 d L H H H H H H G G G H J H N ",
"w.t @ < o.-.-.;.:.:.:.:.:.:.>.>.>.:.>.>.>.>.=.&.u y t i t t t 5 7 5 7 u y y y F ",
"8.- @ v O.:.>.>.>.>.>.>.>.>.>.>.;.;.>.>.>.>.>.=.M u y y 4 4 2 2 4 y u l 1.C.K.I.",
"I.l.l.X.&.=.;.:.:.:.-.-.;.6.7.j.m.m.$.*.*.+.O. .c v c M ) _ _ ` O.) ` / g.(.[.!.",
"(.Q.R.$.O.:.=.;.%.8.v.A.A.A.Z.v.9.v.u.:.:.:.:.&.M / ` o.O.O.o.o.o.) / M k.(.].(.",
"(.R.~.a.=.>.>.$.M.v.9.V 0 0 0 % . 0.u.>.>.>.>.=.N / ` ` / ^ ) ) ` ^ ) ^ f.`.`.|.",
"+X]..Xj.*.:.:.%.7.M # % % % * # . q.4.@.o.o.O.) c ^ ( N n z g 3 , % r M N..X$XoX",
"~.R.~.r. .*.=.@.a.~ # % % % % % . e.6.:.=.=.:.+.M ` g % % % % % % O z ^ V.!..X!.",
"{.!.].b.O.:.:.O.j./ % % % % % # . h.%.:.:.:.:.=.M / g % % % % % # . { / K.~.|.~.",
"].]..XC.) *.#.#.w./ & * % % % % . r.$.+.o.o.O.) b ) x % % % % % X X { M U.`.oX~.",
"~.!.~.D.` *.;.-.w.N ; % % % % % . r.y.:.;.:.:.O.M ` z * % % % o . O ] ^ Y.|.|.^.",
"~.~.|.P.&.;.;.;.a.^ q % % % % % . r.%.*.*.+.#.| v ^ z * % # o . . X b m ^.|..X~.",
"~.~.~.R.N | O.O.7.] q % % % % # . k.%.+.+.o.O.o.b ^ z % # o X @ 1 k N N |.`.|.(.",
"!.R.!.W.[ *.-.-.7.@.w % % % % # . h.-.;.-.-.-.O.M ) k , 1 k n N / ) / C {.~.[.R.",
"~.!.!.~.#.*.-.O.5.4.e % % % % # . h.@.O.O.@.O.` c M N N ) ) ) ) ^ N b z +X[..X~.",
"~.W.~.~.{ [ } O.5.6.r % % % % O . h.@.O.O.o.O.) l M ) ) ) ( M M N N / C !.[.].].",
"+X~.~.~.1.#.-.*.5.7.r % % % % o X h.#.+.+.-.+.o.M N N M M N N ( ( ( N Z ~.(..X`.",
"{.!.~..X7.#.-.-.%.4.k * % % % X . h.` o.o.o.o.) m l N ( ( ( ( ( n n n F .X`.$X`.",
"~.Q.~.!.2.( [ [ ] 4.k % % % % . o h.o.O.O.o.O.) y v ( ( ( N n b N N n F `.E.!.^.",
"~..X~.~.q./ o.o.O.4.k % % % O . o w.O.O.O.+.O.o.c M N N b n N N M z 9.U.|.`.`.~.",
"~.~.{.{.k.| +.+.O.4.k % % * o . O 8.O.O.+.O.+.o.v c b n ( N M b h.Y.oX`.|.|.#X|.",
"~.~.#X~.b.^ [ ) ( ..z % % % X   O 2.) ( ( ( ( N y c N N M A k.Y.(.(.(.Q.(.^.(.!.",
"~.~. X$XD./ ) | o...A % % O . . O 3.) | | | ) / y y c Z N.(.(.(.(.(.oX(.#X(.].`.",
"!.E.!.!.D.~ / ) / ] 1.j j h f h j X./ / M / M ^ k D V.(.Q.Q.Q.R.Y.Q.(.Q.`.!.(.Y.",
"!.W.W.!.^.D.H.D.J.D.S.x.x.S.F.J.P.P.K.K.K.K.F.K.Y.(.{.(.(.(.Q.Q.R.(.(.(.OX!.(.!."
};
