/* XPM */
static char *e401b86d994440baa5f642fb6af62fe7ORtKKVEHW9DjiehT[] = {
/* columns rows colors chars-per-pixel */
"40 40 205 2 ",
"   c #0F0E0A",
".  c #140B02",
"X  c #190E03",
"o  c #100F0C",
"O  c #13130E",
"+  c #1C1004",
"@  c #161612",
"#  c #171813",
"$  c #1B1C16",
"%  c #1D1D19",
"&  c #231405",
"*  c #211709",
"=  c #2B1F0D",
"-  c #311E08",
";  c #201F1A",
":  c #1F2019",
">  c #35220A",
",  c #392208",
"<  c #23231D",
"1  c #2A2518",
"2  c #3B2F1B",
"3  c #382C18",
"4  c #3D321A",
"5  c #262720",
"6  c #272922",
"7  c #2B2C24",
"8  c #2F2F29",
"9  c #282721",
"0  c #312F29",
"q  c #2F3029",
"w  c #2F3027",
"e  c #33332B",
"r  c #3D3C2F",
"t  c #3B3529",
"y  c #3C3B33",
"u  c #3E3F39",
"i  c #373631",
"p  c #422A0B",
"a  c #4B2E0D",
"s  c #482D07",
"d  c #502F0C",
"f  c #4E300D",
"g  c #59370B",
"h  c #402D12",
"j  c #42351C",
"k  c #45381D",
"l  c #523C19",
"z  c #533612",
"x  c #653D0E",
"c  c #643D10",
"v  c #463A21",
"b  c #413D35",
"n  c #413E39",
"m  c #3F4036",
"M  c #5E4218",
"N  c #6A430A",
"B  c #7F510B",
"V  c #654715",
"C  c #734D14",
"Z  c #49412B",
"A  c #5A4B2B",
"S  c #574726",
"D  c #44443C",
"F  c #49453D",
"G  c #49483E",
"H  c #474436",
"J  c #524B38",
"K  c #624F2E",
"L  c #67542F",
"P  c #665A39",
"I  c #75663E",
"U  c #4C4C43",
"Y  c #4F4F48",
"T  c #4A4740",
"R  c #524E44",
"E  c #535145",
"W  c #5A5747",
"Q  c #5A5A44",
"!  c #55544A",
"~  c #59544A",
"^  c #5D5B4D",
"/  c #5C5A52",
"(  c #5F5F59",
")  c #615E4B",
"_  c #625E53",
"`  c #67634A",
"'  c #756741",
"]  c #656354",
"[  c #696556",
"{  c #6C6A57",
"}  c #66635B",
"|  c #6A665B",
" . c #6C6B5C",
".. c #726F56",
"X. c #726A5E",
"o. c #786C57",
"O. c #74745D",
"+. c #7D7B5E",
"@. c #737357",
"#. c #6A6961",
"$. c #736E62",
"%. c #786F62",
"&. c #747362",
"*. c #7B7364",
"=. c #7A7965",
"-. c #7E7669",
";. c #7E7C6A",
":. c #77776A",
">. c #7E7C72",
",. c #80510B",
"<. c #AF5A09",
"1. c #B55C08",
"2. c #97620A",
"3. c #A96E08",
"4. c #A86B0A",
"5. c #BD6C0B",
"6. c #A16D11",
"7. c #B57E11",
"8. c #AA7216",
"9. c #897C52",
"0. c #8B7C4C",
"q. c #837B6C",
"w. c #827F65",
"e. c #857E72",
"r. c #887F71",
"t. c #D28B05",
"y. c #D89005",
"u. c #C98506",
"i. c #EC9E04",
"p. c #FDAA01",
"a. c #F3A303",
"s. c #8D825A",
"d. c #848363",
"f. c #83826C",
"g. c #8B8A6A",
"h. c #8B8667",
"j. c #948C6C",
"k. c #938762",
"l. c #848373",
"z. c #8B8273",
"x. c #8D8B74",
"c. c #8E867A",
"v. c #8C8B7C",
"b. c #86867B",
"n. c #918676",
"m. c #908F72",
"M. c #948C7C",
"N. c #908778",
"B. c #929274",
"V. c #94927D",
"C. c #9C987E",
"Z. c #A39E7E",
"A. c #A5A07E",
"S. c #8B8B81",
"D. c #968E80",
"F. c #939282",
"G. c #9C9282",
"H. c #9C9C83",
"J. c #959588",
"K. c #9E9688",
"L. c #9C9D94",
"P. c #A19684",
"I. c #A09F84",
"U. c #A49989",
"Y. c #A99D8C",
"T. c #A3A287",
"R. c #A4A38A",
"E. c #ABA48D",
"W. c #A9A88D",
"Q. c #AEA291",
"!. c #ABAB94",
"~. c #ABAC99",
"^. c #B2A694",
"/. c #B5A996",
"(. c #B9AA97",
"). c #B4A998",
"_. c #BBAE9B",
"`. c #BFB19D",
"'. c #BEB2A0",
"]. c #B6B6A8",
"[. c #BEBFB2",
"{. c #C4B59E",
"}. c #C5B6A2",
"|. c #C8B7A0",
" X c #C6B8A3",
".X c #CABBA5",
"XX c #C5B9A8",
"oX c #CDBFAD",
"OX c #CCBEAA",
"+X c #CEC0AB",
"@X c #CFC1AC",
"#X c #CFC1AE",
"$X c #CEC1AD",
"%X c #CEC1AC",
"&X c #D0C2AE",
"*X c #D2C4AF",
"=X c #D0C2AE",
"-X c #CEC2B1",
";X c #C5C6B7",
":X c #D1C3B0",
">X c #D2C4B1",
",X c #D2C5B2",
"<X c #D2C5B2",
"1X c #D5C8B5",
"2X c #D6CAB9",
/* pixels */
">X.X@X*XoXoX X&X>X1X&X&X&X*X@XoX.X^.c.M.).+X+X>X@XoX.X@X1X>X1XoXoX*XoX&X.X*X>X1X",
"@X.XoXOX>X XoX+X&X&X+X.X.X+X@XOX.X_ u e e m ^ ^.+X.XoX@X*X@XoX.XoX.X&X{..X&X>XOX",
":XOXoX1X>X&X*X&X,X>X>X.X&X:X2X@X&X! D e e i D D X.XX1X>X>X>X&XoXoX{.$.U.>X>X2X@X",
"@X.X&X@X+X.X*X X_.R e..X&X&X1X:X+XR U e w w w e U E '.oXOX+X@X.X(.< F .X1X>X>XOX",
"OX@X&X.X*X X&X.XOX_ e Q.oX@X:X@XOXD Y q 7 < : : < D / }.@XOXOXOX%.$ _ .X@XoXOX.X",
"OX@X*X+X>X&X>X:XXXD 5 N.&X@X>X-X-XF E 7 : : $ : % % e e.-X-XoX@X| 6 e oX1XoX1XoX",
"oXoX>X&X:X.X@X.Xc.$ 1 G.&X&X@XOXU.0 Y < : : # 6 % @ % u ).@XoXoXX.% @ n.oX}.@XoX",
"oX}..XoX>X+X,X@XF < y `..X+X^.~ ] 7 U % $ : ` d.g.l.! $ M.@XOX Xr.7 7 y >XoX&XoX",
".X X.X&X`.}.,X_.; % R {.}.N.#.v.x.e m : : @.d.d.g.g.B.v. .^.OX.XP.7 7 % '.oX@X.X",
".X|.{.^.^ _.&X^.@ ; y q.r.#.F.x.x.q m : ) g.g.x.F.B.g.m.J.&.U.l.R G H 7 U..X*X.X",
">X.X X) Y OXOX}.% 5 < 7 D V.f.b.x.e i 7 d.g.g.l.I.R.B.d.[ u 0 e u 7 H 9 U.>X>X>X",
"&X.Xq.&.] .X@X+X! @ $ : ! f.f.x.x.e q Q d.d.O.H.W.W.C.` < 6 < 7 e 8 < r .X+X>X&X",
"oX{.U F.] }.oX X).b @ $ ^ ;.=.x.B.e 7 O.d.O.m.R.W.W.T.Q : 5 : % < ; r U.oX.X>X.X",
":XU.] R.(  X1XoXoX_.} 7 [ *.O.b.B.e w =.s.g.C.R.R.T.T.O.: $ $ $ w | _.oX>X-X>X&X",
"OX-.q.!.b.U.-XOX@XoXOX$. .=.d.x.x.G Q d.m.C.A.A.A.Z.Z.m.Q r T ( _..XOXOX:X@X*X.X",
"OX| V.!.[.-.:XoX-XoXOX*.Z 4 A ' g.;.g.B.s.I L S Z Z @.B.+.+.F.c.+XoX@XoX-XoX*XoX",
"-X*.V.W.;X} +XXX>XoXoX*.3 N 2.p ' x.k.4 - g 4.3.s + j g.+.O.F.M.1X*X*XOX&X.X*X+X",
"}.x.=.I.;XL.U. XOX.X.XX.l u.i.,.2 g.A f g t.p.p.t.s j k.O.@.M.c.{..X+X.X+X.X+X{.",
".X(.^ H.~.[.;.$XoXOX.X9.S u.p.2.a ) z N ,.a.p.p.i.g S d.@.{ x.M.+X&XOX.X1X+X*X.X",
"&X XE B.J.].J.`.*XoX&Xf.J N 3.x g 2 c x V 3.y.y.B * ` w.{ { b.M.{..X>X+X>X+X*X+X",
"oX X*.=.x.L.>.}.&X&XOXz.9.v 3 > s a d a k h , , = J f.O.{ [ ;.F..X.XOX.X{.@XoX@X",
">X&XOX^ f.v.S.K.OX,X,XD.f.=.! # - - , - } 9.9.0.9.h.f.[ W ^ $.E.*X*X1X&X>X>X2X1X",
".X}..X%.~ { >.D.b.Y.OXD.;.O.F X & & & & T #.=.f.l.f.O.^ ^ ^ } Y..XOX&X XoX X>X.X",
":X.X&X.X#.! #.J.J.l.).G.=.{ y . X X X X 7 #./ [ &.O.] ^ ^ ^ ] ^.OXoX&X.X*XoXoXoX",
"oX:X&X*X@X|  .b.J.b.{.U.$.( < . . . . . % #.^ ^ ^ ^ ^ _ | } D.oX*X+X*X+X>X*X>XoX",
".XoX+X@X>X^.$.[ c.S.XX}.b./ b $ . . . . O ] ^ ^ ~ ] } | e.Q. XoX+X.X&X.X:X>X-XOX",
"oXoX&XoX:X XV.! :.c.oXOX}.G.).K.$ %     O U Y E A S | ^..XoXoXoX&X+X*X.X@X-X>X.X",
"oX.XoX.X>XoX}.*./ $.q.G..X&X<X^.y U < 4 3 7 7 ! 1 t ~ _.+X&XoX.XOX+X*X&X>X&X-XoX",
".X{. X.X.X.X>X X~ 8 ; X.|..X).;.T G C 4.8.4 G =.7 ^  .=.}..X.X{..X.X.X{.>X.X+X X",
".X.X.XoX>X&X1X.Xe @ 5 | C.q.L P / H 7.<.5.V  .w.W U ;.! G.&X+X.X X.X1X&X1X&X>X.X",
"=X{..X.X+X.X.X@X).$.0 0 i 7 1 V [ b 6.1.5.l ;.f.] E L V K _.&X.X.X+X.X.X.X&X>X*X",
"*X&X*X+X>X.X+X@X,XQ.5 $ ; 7 < 2 [ y k C M e f.w.] G 3 1 ; M.&X&X+X&X1X.XoX+X>X&X",
"*X.X&X*X>XOX>X@X1X'.y % 8 < ~ M.e 5 < 7 7 7 ] E Y m 7 7 e i /.oXoX*X*XoX>X@X2X@X",
"oX{.+X XOX}.$X X.X.XM.$ % D Q.e.~ n u ! D E ! ^ G i e w i < *.}..X.X.X{.oX}..X X",
"oX&X&XOX@XOX>X@X@XXXoX).~ 0 -.| J k < % % ~ e E ]  .q 5 ; # $.&XoXOX*X.X>XoXoXOX",
".X&X&X&X1XoX1X@X1X-XoX-X^.R ] *.M # 7 9 q G.S b ^ ! u 7 i | }.&X&X&X>X*X-X-X2X@X",
"oX.X1X+X>X}..X}.oX.XoXoXoXOX Xe.; ; ; ; R U.1 % 6 O _ }.oXOXoX.X&X.X&X{..XOXoX.X",
"oXoX*X1X1X&X1X&X&X+X&X.X.X&X}.T 7 ; @   e.P.i < < # 0 _.:XoX*X.XOX&X>X&X1X&X*X&X",
"{.{..X&X.X X*X.X X X.X{. XXXG.@ 9 7 ; o _ | < 7 < @ ; E..X.X X{.{..X.X.X&X.X.X{.",
".X{.{..X*X.X*X.X&X.X.X X X.X+XY._ n b J {.n.t e b ] /.oXoX.X.X X{..X*X.X>X.X*X X"
};
