/* XPM */
static char *_a7129503cb24a79e97d7490a20c3ee2eDRSJ66k6I7OdrN1[] = {
/* columns rows colors chars-per-pixel */
"40 40 202 2 ",
"   c #0D0904",
".  c #140B02",
"X  c #190E03",
"o  c #140F0B",
"O  c #1D1104",
"+  c #13120E",
"@  c #161612",
"#  c #171813",
"$  c #1B1C16",
"%  c #1D1D19",
"&  c #2E1C07",
"*  c #251708",
"=  c #301D08",
"-  c #201F19",
";  c #1F201A",
":  c #36240C",
">  c #3D2608",
",  c #23231D",
"<  c #2C281D",
"1  c #322A15",
"2  c #3C2D14",
"3  c #332C1B",
"4  c #3F3216",
"5  c #272621",
"6  c #292722",
"7  c #272821",
"8  c #2B2B24",
"9  c #2D2E28",
"0  c #2F3027",
"q  c #34332B",
"w  c #38372C",
"e  c #3C3C33",
"r  c #3B3A34",
"t  c #452B09",
"y  c #45290A",
"u  c #54340C",
"i  c #5D380E",
"p  c #492F11",
"a  c #493314",
"s  c #44351C",
"d  c #443416",
"f  c #643D0E",
"g  c #433721",
"h  c #463C25",
"j  c #403F39",
"k  c #413D36",
"l  c #3F4037",
"z  c #5E4217",
"x  c #764A0B",
"c  c #794E09",
"v  c #674716",
"b  c #79581C",
"n  c #4C4229",
"m  c #544222",
"M  c #574A2B",
"N  c #424236",
"B  c #44433B",
"V  c #4A463F",
"C  c #4B4A3C",
"Z  c #4A4334",
"A  c #534C38",
"S  c #5C533A",
"D  c #645127",
"F  c #6C5E38",
"G  c #625738",
"H  c #6F6039",
"J  c #474741",
"K  c #4D4C42",
"L  c #4D4B45",
"P  c #524E44",
"I  c #545245",
"U  c #595245",
"Y  c #55534A",
"T  c #5A564B",
"R  c #5D5B4E",
"E  c #5E5C51",
"W  c #5F5F58",
"Q  c #615F4F",
"!  c #615E51",
"~  c #64644C",
"^  c #766A45",
"/  c #7C6844",
"(  c #7F714A",
")  c #646354",
"_  c #6A6357",
"`  c #6C6A54",
"'  c #646359",
"]  c #6A665B",
"[  c #6D6C5C",
"{  c #746853",
"}  c #716D5E",
"|  c #726754",
" . c #74725C",
".. c #7B775D",
"X. c #7C7B5D",
"o. c #717057",
"O. c #746E62",
"+. c #796F61",
"@. c #747363",
"#. c #7A7565",
"$. c #7B7B66",
"%. c #76756B",
"&. c #7B766A",
"*. c #7C7B6C",
"=. c #7E7D72",
"-. c #696761",
";. c #915D0A",
":. c #865210",
">. c #835408",
",. c #AF5007",
"<. c #B05709",
"1. c #9A6409",
"2. c #9B6816",
"3. c #BC740E",
"4. c #B97A07",
"5. c #A16A07",
"6. c #C07F06",
"7. c #85764C",
"8. c #817E5F",
"9. c #827E64",
"0. c #807A6C",
"q. c #80776A",
"w. c #837D71",
"e. c #BB8012",
"r. c #CF8905",
"t. c #DD9304",
"y. c #EA9C03",
"u. c #FDA901",
"i. c #F7A502",
"p. c #848364",
"a. c #8B8465",
"s. c #898967",
"d. c #84836D",
"f. c #8C8B6B",
"g. c #8A866C",
"h. c #918366",
"j. c #868570",
"k. c #8A8474",
"l. c #8D8B74",
"z. c #8E8678",
"x. c #8C8B7C",
"c. c #87877F",
"v. c #958B7C",
"b. c #9A8E7D",
"n. c #928778",
"m. c #94937D",
"M. c #9B9A7E",
"N. c #949374",
"B. c #A19D7C",
"V. c #A5A07D",
"C. c #8D8D82",
"Z. c #938D80",
"A. c #939183",
"S. c #9C9282",
"D. c #9E9D84",
"F. c #97978C",
"G. c #9C9C89",
"H. c #A29786",
"J. c #A39A84",
"K. c #A59989",
"L. c #A99D8C",
"P. c #A6A589",
"I. c #AAA38D",
"U. c #AAA98E",
"Y. c #A3A287",
"T. c #A7A792",
"R. c #ACA292",
"E. c #AAAA99",
"W. c #B1A695",
"Q. c #B5A995",
"!. c #B4A999",
"~. c #BAAD9B",
"^. c #BEB19F",
"/. c #BAB6A5",
"(. c #BEBEB1",
"). c #C3B49E",
"_. c #C5B6A1",
"`. c #C8B7A0",
"'. c #C6B8A3",
"]. c #CABBA5",
"[. c #C7BAA9",
"{. c #CDBFAD",
"}. c #CCBEAA",
"|. c #CEC0AB",
" X c #CDC0AA",
".X c #CFC0AC",
"XX c #CEC1AE",
"oX c #CEC1AC",
"OX c #D1C2AF",
"+X c #D0C1AD",
"@X c #D2C4AF",
"#X c #D0C2AE",
"$X c #CEC2B1",
"%X c #C4C5B8",
"&X c #D0C3B0",
"*X c #D2C5B1",
"=X c #D2C5B2",
"-X c #D2C6B5",
";X c #D2C5B2",
":X c #D5C9B5",
">X c #D6CAB9",
",X c #D8CDBB",
/* pixels */
"*X].+X#X X{.].+X-X;X#X{.+X@X.X{.].OX*X*XOX}.{.#X+X}.{..X-X-X#X}.+X@X+X+X].@X@X-X",
".X].{.{.#X].}.{.#X+X X}.}.+X&X].].W.&.! E 0.}.}.+X].{..X#XOX+X}.}.}.+X).{.+XOX{.",
"&X}.{.-X*X{.#X+X-X#X&X{. X@X-Xn.J e r q e C ].OX#XOX-X*X*X*XOX}.}.@X@X{.:X@X,XOX",
".X].OX{.T P _.].{.}..X].+X~.T J e 0 q q k B ]. X{..X*X X].I.'.].}.}.{.].@X@X&X}.",
"}.+X+X}.Q., P }.{.].{.{.U.B C , 7 8 0 0 N N _.{.&X{.{.[.P V ^.{.}.}.+X].&X{.{.].",
"].{.+X{.K.$ , {.-X{.{.~.Y w ; ; % - , 0 B N _. X&X{.&XL.9 Y '.{.+X{.@X+X-X{.:X{.",
"{.{.*X{.V ; , _.OX{.&X*.9 ; ; @ % ; $ , B e [.OX{.{.{.S.9 5 K.{.@XOX@X].{.'.@X].",
"{.'.{.I.% 7 q {.&X{.~.l # J [ o.C # ; ; N 8 L #.}.{.&X_.q - T ).].}.@X{.@X{.@X+X",
"].).}.U < 7 ]  X X].n.T N.l.s.p.p.~ , ; q q d.j.] K..XOXT $ , H.].].}.}.@X}.+X).",
"].'.).w e N Y v.~.M.%.G.f.f.m.N.s.p.~ $ q q j.l.Z.] H.F.P , @ k.).Q.q.).+X}.+X].",
"@X}.{.k B e r B B V O.$.f.M.D.x.l.s.p.w 9 9 j.l.j.x.P r 6 6 @ b.{.{.L @.].@X-X-X",
"OX].{.| 5 7 q q , 8 , C N.P.U.P. .d.s.~ 7 q j.l.j.j.E ; % $ k ~.{.{.! ] b.{.@X+X",
"{.`.].'.U - , , ; , , w B.P.P.P.N.X.p.X.8 0 g.l.$.*.) % @ q K.'.].].! A.I [.*X].",
"&X}.-X*X{.q.r % $ $ # I D.P.P.P.D.f.p.X.N 0 j.l.@.@.O.8 T W.OX{.OX].! G.R ~.$X.X",
"}.{.{.-X&X].[.n.l e C p.D.D.B.B.V.B.N.s.~ k l.l.p.#.@.[ }.{.}.{.}.J.c.T.$.z.XX}.",
"}.{.&X*X&X{.&X[.*.$.X.s.p.n h m D F 7.s.l.*.f.^ M s h O..X$X].{.{.#.%XE.l.&.$X{.",
"@X@X-X+X@X}.+X_.*. .X.f.G X y 5.e.c > : 7.n.7.> 5.>.2 | .X$X$X.X{.-.%XU.j.w.#X X",
"].).).].+X].OX).%.o. .a.G & 4.u.u.y.x u s 9.s f y.t.z { ].}.]._.x.E.(.Y.} L. X].",
"].).+X+X{.].:X}.%.o.o.9.^ & 4.u.u.i.1.v f A p x y.r.m #.].{.{.).=.(.T.M.T ].+X].",
"|.].).}.#X+X@X}.%.` `  .9.1 t 1.4.;.i i i p u u x u A j.{.+X{.Q.F.E.m.l.T |.*X X",
"+X).].}.].].).{.%.) ) ` d.8.h 1 1 s A y y y y = n F 8.k.}.OX.X).%.G.l.] b..X.X.X",
":X+X*X@X:XOX-X-X*.) I U @.d.h.a.9.9.@.* = = & * C  .0.A.*X*XR.=.F.=.$.E *X*X>X-X",
"}.).].]. X_.{.].*.R Q Q ) $.p.*.} ) ! X * X X X r [ $.A.[.z.c.G.@.E C J.{.].*X].",
"@X].@X+XOX{.*X}.j.) R R R ! ) ! Q _ j o X o X X , ) @.m.W.c.A.A.} T L.{.*X].{.{.",
"+X@X+X@X-X}.-X+X}.S.O.' -.E R R R ] , . . . . . + R %.W.$XZ.C.*.Q b.+X{.-X+X-X.X",
"].}.{.+X#X}..X].{.].~.S.&.U G ) ) ! @       o U z.O.R.[.{.Z.*.E k.].OX}.&X&X$X].",
"{.{.OX}.#X]..X].{.{.{.{.k.3 d l q q % $ $ q 7 L.{._.}.~.!.k.' Y I.}.+X]..X$X*X].",
"}.].{.{.#X{.-X{.+X}.{.K.~ ! 6 L Y 6 b 2.v r J O.}..X$Xj.q e E L. X|.@X|.*X.X$X{.",
"].).).].}.].@X}.}.].)._ $.) B ) #.s 3.<.e.h -.~ / b._.*.5 @ 5 K.].].|.].#X}..X_.",
"|.].].}.@XOX;X+X+X}.9.b H K Q $.j.g 3.,.4.g @.D d 0 B r 7 P v._.).}.@X+X;XOX;X].",
"+X).}.].}.].].+X#X/.N 1 2 Z )  .j.k z :.z q ..h % 8 , $ , L.{.].}.].}.].].+X#X*X",
"@X|.+X+X@X}. X+X*X#.8 0 7 e I U [ N 7 8 < , k ] T , 6 , 5 R.&X{.+X+X#X}. X+X*XOX",
"@X].+X@X@X X-X X~.7 q q 9 r J Y P P k L k e P =.W.L - # k.*X&X}.{.OXOX{.*X.X>X.X",
"+X).}.].}.).+X].K.% - , 7 R ) T k U , % , 3 S ' q.k P L.].].}.'.].}.}.)..X_.}._.",
"{.OX+X}.OX{.*X X{.v.V q r C R C s w.J 5 8 # a { O.U R.&XOX{.{.+X|.}.+X}.&X{..X].",
"{.+X+X+X-X.X-XOX-X$X{.OXv.+ ; ; - q.w.$ , @ , L {.{.&X-X&X$X{. X+X+XOX+X$X$X>X.X",
"{.].;XOXOX].}.).}.}.{.].P @ % , 6 O.K.@ @ , < 0 K.[.].].}.}.{.}.+X}.+X).}.].{.].",
"{.].@X:X:X+X;X+X*X{.@X).! + % 7 , w K.+ @ , - $ Z.,X,XOX*X.X+X}.|.|.@X|.:XOX-X X",
"].).].}.].).#X].`.'.].).'.I.&._ _ B.'.b.O.+.b.).].{.OX}.[.].].).).].].].OX].].).",
"].).).}.+X}.@X}.{.].].'.).].{.OX{.}.{.].'.].).].{.{.OX{.{.].].).).].@X}.*X].OX]."
};
