/* XPM */
static char *_25f26fa494e482492783837e34b63f5o0JYk4PcXRLy6rLo[] = {
/* columns rows colors chars-per-pixel */
"40 40 176 2 ",
"   c #C4B49E",
".  c #C6B6A1",
"X  c #C8B7A1",
"o  c #C7B8A2",
"O  c #CABBA5",
"+  c #C6BAA9",
"@  c #CEBEA9",
"#  c #CEBFA9",
"$  c #CEBEA8",
"%  c #CCBDAA",
"&  c #CDBDAA",
"*  c #CCBEAA",
"=  c #CDBEAA",
"-  c #CCBFAA",
";  c #CDBFAA",
":  c #CCBEAB",
">  c #CDBEAB",
",  c #CDBFAB",
"<  c #CEBEAA",
"1  c #CEBFAA",
"2  c #CFBFAA",
"3  c #CEBFAB",
"4  c #CDBEA9",
"5  c #CBBEAC",
"6  c #CBBEAD",
"7  c #CBBEAE",
"8  c #CCBFAC",
"9  c #CDBFAC",
"0  c #CCBFAD",
"q  c #CEBFAC",
"w  c #CEBFAD",
"e  c #CCBFAF",
"r  c #CCBDAA",
"t  c #CEC0A9",
"y  c #CFC0A9",
"u  c #CDC0AA",
"i  c #CDC0AB",
"p  c #CEC0AA",
"a  c #CFC0AA",
"s  c #CEC0AB",
"d  c #CFC0AB",
"f  c #CEC1AB",
"g  c #CFC1AB",
"h  c #CDC0AC",
"j  c #CDC0AD",
"k  c #CEC0AC",
"l  c #CFC0AC",
"z  c #CEC1AC",
"x  c #CFC1AC",
"c  c #CEC0AD",
"v  c #CFC0AD",
"b  c #CEC1AD",
"n  c #CFC1AD",
"m  c #CFC2AC",
"M  c #CFC2AD",
"N  c #CDC0AE",
"B  c #CCC0AF",
"V  c #CDC0AF",
"C  c #CFC0AE",
"Z  c #CEC1AE",
"A  c #CFC1AE",
"S  c #CEC1AF",
"D  c #CFC1AF",
"F  c #CEC2AE",
"G  c #CFC2AE",
"H  c #CFC2AF",
"J  c #CEC1AC",
"K  c #D0C1AB",
"L  c #D0C0AC",
"P  c #D0C1AC",
"I  c #D0C1AD",
"U  c #D0C2AC",
"Y  c #D1C2AC",
"T  c #D0C2AD",
"R  c #D1C2AD",
"E  c #D0C3AD",
"W  c #D1C3AD",
"Q  c #D2C3AC",
"!  c #D0C1AE",
"~  c #D0C1AF",
"^  c #D0C2AE",
"/  c #D1C2AE",
"(  c #D0C3AE",
")  c #D1C3AE",
"_  c #D0C2AF",
"`  c #D1C2AF",
"'  c #D0C3AF",
"]  c #D1C3AF",
"[  c #D2C3AE",
"{  c #D2C3AF",
"}  c #D3C3AF",
"|  c #D1C4AF",
" . c #D1C5AF",
".. c #D2C4AE",
"X. c #D2C4AF",
"o. c #D0C2AE",
"O. c #CCC0B0",
"+. c #CFC2B0",
"@. c #CEC2B1",
"#. c #CFC2B1",
"$. c #CFC3B1",
"%. c #CEC2B1",
"&. c #D0C2B0",
"*. c #D0C3B0",
"=. c #D1C3B0",
"-. c #D0C3B1",
";. c #D1C3B1",
":. c #D2C3B0",
">. c #D0C3B3",
",. c #D1C4B0",
"<. c #D1C5B0",
"1. c #D1C4B1",
"2. c #D2C4B0",
"3. c #D2C5B0",
"4. c #D3C5B0",
"5. c #D2C4B1",
"6. c #D3C4B1",
"7. c #D2C5B1",
"8. c #D3C5B1",
"9. c #D3C6B0",
"0. c #D3C6B1",
"q. c #D3C7B1",
"w. c #D0C4B2",
"e. c #D1C4B2",
"r. c #D1C5B2",
"t. c #D0C5B3",
"y. c #D1C5B3",
"u. c #D2C4B2",
"i. c #D2C5B2",
"p. c #D3C5B2",
"a. c #D2C5B3",
"s. c #D3C5B3",
"d. c #D2C6B2",
"f. c #D3C6B2",
"g. c #D2C6B3",
"h. c #D3C6B3",
"j. c #D3C7B3",
"k. c #D4C7B1",
"l. c #D4C6B2",
"z. c #D4C7B2",
"x. c #D5C7B2",
"c. c #D4C6B3",
"v. c #D4C7B3",
"b. c #D1C4B4",
"n. c #D1C5B4",
"m. c #D2C5B4",
"M. c #D3C6B4",
"N. c #D3C7B4",
"B. c #D2C6B5",
"V. c #D3C6B5",
"C. c #D3C7B5",
"Z. c #D3C6B6",
"A. c #D3C7B6",
"S. c #D4C6B4",
"D. c #D4C7B4",
"F. c #D5C7B4",
"G. c #D4C7B5",
"H. c #D5C7B5",
"J. c #D4C7B6",
"K. c #D2C5B2",
"L. c #D4C8B3",
"P. c #D5C9B3",
"I. c #D4C8B4",
"U. c #D5C8B4",
"Y. c #D5C8B5",
"T. c #D6C9B5",
"R. c #D6C9B6",
"E. c #D6C9B7",
"W. c #D6CAB7",
"Q. c #D7CAB7",
"!. c #D5C8B6",
"~. c #D7CAB8",
"^. c #D6CBB8",
"/. c #D7CCBA",
"(. c #D6CAB8",
"). c #D8CDBB",
/* pixels */
"5.O K _ , , X _ 5.j. ., u k., , O n 5.5._ O _ k.K , , n 5.5.5., K k.2 , X *.5.j.",
"n O , , 5.O , u 5.u , r O , _ , O _ _ u n O O u , O q n  ._ n O 2 O _ O , n $.i ",
"_ r , C.5.u 5.u I.5.*.r _ *.~._ _ _ k.5._ O , _ 5.*.Z.5.5.5._ , ,  .5.n 5.5./.n ",
"n O *.n q O k.O r r n O K *.C.*._ , O , , O 2 K , n 5.u r n n O K u O O 5.5.$.r ",
"% n n 2 5.O n r , O % , O , _ , , O , O % % O , *.q q , u r + , O K K O n q q O ",
"% u _ u k.q C.n C.e 5 q } _ k._ 5.5.>.q % 5 K K *.*.*.*.C.+.r n _ K 5.n C._ Z.e ",
"q q k.u n O q o K q n , _ } K , r r q , 5 q *._ q q , % q n q q _ _ *.O r o _ O ",
"r o O , 5., C.n _ , , O O u _ , 5.n *., , o O , _ q *._ *.n , o O ,  ., 5.q _ O ",
"O X O u , O k.u K , O O O K K , } K O u O O O K , , _ K , , O O O K , O P.$ K O ",
"O o X O , , _ O K O O     O u , u u u O O     O , , K K , O O O   O K O } O _ O ",
"} O , , u , r  .k.5.k.K O  ., , ,  .5.5.} K O K K u 2 _ k.k.k., O K _ K , 5.k.5.",
"_ , K O  .O n u 5._ _ , , K _ , , K  . .K t u _ _ O , _ } _ _ , K u _ O , 2 k._ ",
"u o O 2 K X , O _ , j o O r n O O O _ , r o X O u r , , _ u , O O O K X r O 5.O ",
"*., Z.*.5.n C.q n n 5.r  ._ +.C. ._ , _ n , _ _ _ 5.5.*.n _ *., _ _ _ u 5.n C.5 ",
"% q *.Z.5.O *.r n r 5 q n , +.n n q , , % r u O n C.C.+.+.5 r q , O r O $.+.+.r ",
"% , n *.5., *., +.q 5 r q n *.n +.q q 5 r , n , 5.+.C.+.+.5 r , n u H j $.5 5.5 ",
"_ n k. .k.O _ O *._  ._ 5.5. .K r % _ q K _ _ k. .n u , *.*.*.q P.K k.r n O 5., ",
"X   O O q O _ O , O O   O O K O n % % O O     O , O K O , O O o   O K O q O O O ",
"O O O K , O Z.K , O t   O K y O k.K 2 O O O O _ , K } K O , O X O K , O P.u _ O ",
"O O O O 5.n k.q } u u O O O _ _ _ _ K _ , O X O K _  . .} _ , O O O  .K 5.K } t ",
"_   O O O O . , _ _ , O O O O O X , _ _ , O O O O O X , _ _ K O O O O O   n n n ",
"k._ P.} I._ k.s.Q.I.Z._ k.P.Q._ 5.5.I.C.k._ 6.k.k.5.5.k.I.Q.Z._ k.5.Q._ 5.5.^.C.",
", X O O 2 X , O _ , K o O O _ O O , u , O o O O , O , , n n , o O O , O , O 5.O ",
"_ O Q _ *., k.O , u _ O 2 _ u u _ u , u n O , q _ K _ n q n *.O 2 , u , 5.O n r ",
"q _ _  .5.i C.n 5.n n n 5. . .+.5.*.n r u _ _ K _ _ C.5.5.+.5 +._ K _ K Z._ 5.j ",
"o , , n 5.O 5 r q O + r , n ^.n q 5 5 % O u O K n n +.5 j 5 O r K O _ O 5.5.5.+ ",
"q r +.r $.O n o , , , , u _ C.H r % , r q q K K n 5 u r u , 5 q  .u 5.O n +.$.r ",
", % , , 5.u 5.n _ , K O , u 5._ *.r _ , , O O K +.n 5.n _ _ , O O u } O 5.n n , ",
"O   O O O O 5.O O O O   O O O O _ O O O O   O O O O _ , O O O   O O O O } O u   ",
"O O O O j.n I._  .y K O O t } _ 5._  .K O O   $  ._ k. ._ _ K O O O k._ I._ k., ",
"K O O , O O O _ _ _ _ O O t O , O K _ _ u O O y , O O _  ._ _ O , O , O O K n *.",
"} O  .u P.O K u k. ._ u u Q _ O ,  .}  ._ , K K _ , , _ k._  .u K K  .O , n 5.n ",
" .O , _ 5., 5.n C.5.*.% q _ k._ n +.5.$.n O , n 5._  .5.C.C.*.r , Q 6.q *.n ^.n ",
", o 2 O O X  .o O O 5 o O , O O r O O r O o O O O O , O o r r o O O O X q o % o ",
", _ _ O *., *.q n 5 5 +._ 2 K , +.n q r r n n , _ _ _ _ +.r 5 n K O _ O +.q q % ",
", K _ _ C.n 5.+.C.O.q q _ _ k.*.+.*.5.e r n n n *.*.*.k.C.$.5 n _ n 5._ C.+.A.e ",
", % 5.n $.o O o r % r , , _ u q O o % O % , u u q r r o r r r r K , n o % + r O ",
", % 5.I.^.K I._ *.n n O O } C.n Z._ _ _ n O , K 5.^./. .5.n _ O u u k.u C.n k.u ",
"o   o , O    .O O o O   O r O o u O O X O   o O O r n , o O o   O O O O _ O O   ",
"X o X O n ,  .O u O O o   O u n K , O O O     O , n n u n O O o   O K O  .O _ O "
};
