/* XPM */
static char *d2060837d4f54b25fb3ade23f05d7852VsSuCRcnwhJGoRo0[] = {
/* columns rows colors chars-per-pixel */
"40 40 138 2 ",
"   c #3C160E",
".  c #251416",
"X  c #2C1615",
"o  c #351713",
"O  c #381712",
"+  c #3C1812",
"@  c #351F1B",
"#  c #44170B",
"$  c #44190B",
"%  c #4E1B0E",
"&  c #5F1B06",
"*  c #541C0D",
"=  c #5C1D0C",
"-  c #451A12",
";  c #4A1B11",
":  c #531D10",
">  c #661D06",
",  c #6C1E06",
"<  c #631F0B",
"1  c #691F0A",
"2  c #711E03",
"3  c #5C200D",
"4  c #45231A",
"5  c #44281F",
"6  c #572113",
"7  c #5C2514",
"8  c #522619",
"9  c #582718",
"0  c #542B1D",
"q  c #6B2007",
"w  c #64210C",
"e  c #6C210A",
"r  c #6F280F",
"t  c #752004",
"y  c #7C2204",
"u  c #73230A",
"i  c #7B250A",
"p  c #77290E",
"a  c #7A290D",
"s  c #612512",
"d  c #682611",
"f  c #642A16",
"g  c #622F1D",
"h  c #6B2E18",
"j  c #752C12",
"k  c #7C2F13",
"l  c #6E3316",
"z  c #60301E",
"x  c #733315",
"c  c #7E3314",
"v  c #7B351A",
"b  c #7D3919",
"n  c #522E21",
"m  c #5D3321",
"M  c #623422",
"N  c #6C3620",
"B  c #6E3A23",
"V  c #743C23",
"C  c #7B3F24",
"Z  c #7F4024",
"A  c #842505",
"S  c #8C2604",
"D  c #802806",
"F  c #8D2905",
"G  c #842709",
"H  c #842B0B",
"J  c #892909",
"K  c #932703",
"L  c #992703",
"P  c #942A04",
"I  c #9C2A03",
"U  c #8E350E",
"Y  c #9F3005",
"T  c #92310A",
"R  c #9B340D",
"E  c #92380F",
"W  c #862F10",
"Q  c #833214",
"!  c #8B3514",
"~  c #8D3915",
"^  c #803618",
"/  c #843B1B",
"(  c #8B3C1B",
")  c #943711",
"_  c #913915",
"`  c #9C3C14",
"'  c #933E1B",
"]  c #983F1A",
"[  c #A42C02",
"{  c #A92D02",
"}  c #A43105",
"|  c #AB3105",
" . c #A4360C",
".. c #AA3509",
"X. c #A53B0E",
"o. c #AD3A0C",
"O. c #B03306",
"+. c #B43608",
"@. c #B33B0B",
"#. c #B93D0C",
"$. c #A53E14",
"%. c #AB3E12",
"&. c #833F21",
"*. c #87411F",
"=. c #8D401E",
"-. c #994016",
";. c #94411D",
":. c #9B421C",
">. c #A54216",
",. c #AC4216",
"<. c #A44319",
"1. c #AB4519",
"2. c #A5481E",
"3. c #AC491B",
"4. c #B44314",
"5. c #BB4412",
"6. c #BE4A17",
"7. c #B24619",
"8. c #B24C1D",
"9. c #B6501F",
"0. c #854324",
"q. c #8B4422",
"w. c #934622",
"e. c #994721",
"r. c #964823",
"t. c #9D4D26",
"y. c #A24C23",
"u. c #B24F21",
"i. c #AD5024",
"p. c #B05225",
"a. c #BB5220",
"s. c #C34612",
"d. c #CB4D17",
"f. c #CB531C",
"g. c #D8581D",
"h. c #CA5721",
"j. c #C05924",
"k. c #CC5C23",
/* pixels */
"s.@.s.5.,.= K F S P A F K A < i.%.} J  .%. .@.X.f 1.%.>.E 7.3.,.1.9.0 <.>.>.` ,.",
"| { [ [ A 2 [ L { [ [ P L I A 7.{ [ { { [ [ | ..u P [ [ [ { { [ | @.V K [ { [ { ",
"[ { [ [ S * L [ { [ [ L } } W S } P S F { I | { w S [ I { { I P | Y : S [ I { [ ",
"[ { L [ L e ..[ { { @.I I } p.S I t [ [ L [ [ I e [ [ I { { L I L L * L [ I { [ ",
"s 3 w = * g ' ' x ~ y.;.( *.Z * % 3 e e e w w e O e u u u i u u u u X 1 2 a u u ",
"u K P F S L L K K = k.s.5.6.g.#...s.s.7 r X.@.o.5...P +.4.y.q.1.>.<.a.$._ 1.1.v ",
"S L I P [ [ { I { 1 6.} I [ | { { I }   e } } I { { { I { :.2.} [ [ O.{ { L [ e ",
"U } } P { { { I P # I | } F { { [ [ I * i } | I { { { I [ i H } [ K { [ { [ I 1 ",
"a.} [ I #.{ [ [ | w I K [ I I { [ I [ = t I [ [ [ [ { K L y y P L I [ [ [ I [ y ",
"V w.;.*.r.^ x ( ( 0 ; 6 * 6 = 3 = : = . + = * 3 < w < 7 = # ; u 2 u u i y u u : ",
"P K F K A * F K F S L K K K e e A A A A F F y t : f.%.Y K  .1. .%.X.4 , y a A A ",
"[ [ I [ P u I I P [ [ } L [ A K [ { [ [ [ { S [ e s.[ [ { { { I | ..; L [ L [ { ",
"{ { [ I t j Y } P [ { { [ I & A { } L ..{ [ I { r [ { A F P { I | I ; y I [ { { ",
"{ [ [ [ L y...[ [ +.{ [ [ [ H  .[ [ { | [ { [ ..;.{ P y { [ I { [ I - K { [ { { ",
"' ^ =.~ 0.M r.;.( w.( x ( ( N x ! ! Q ' i e ! ;.M 1 # w 1 r 1 1 1 e . ;.` <.~ <.",
"C e.:.=.y.~ x ' ' z w w e w e u e e e X E $.o.X.4.I F o.6.V w A A A A S S G S * ",
"p.} [ I +.[ [ [ } e [ P I I [ { [ P [ * i } } [ [ { [ [ | / G P L P { [ { I [ 2 ",
"H } } K { [ { [ I & I | I S { { [ [ I   S | [ I | F S I { = H } } K [ { { I P % ",
"A P I K [ [ { I { u d.} [ [ | { { [ [ o P I [ [ I { P A [ 3 a.} [ [ +.{ { [ } , ",
"w S F S A K K F F = j.4.,.1.h.$.` 4.7.- = 1 1 w , e w % = o 0.;.] ' y.~ c ;.] g ",
":.~ :._ :.@ c ^ k b Q w j c w.M ' ! w p ;.c Q $ f N ( / l ~ q.0.w.r.m C / ( b ( ",
"{ [ [ { I : ..{ I { [ [ { } d.e.| { [ { { [ { I R H { } [ { +.[ [ } y.Y [ { [ O.",
"[ { [ [ A % P | I [ P P I [ | u { [ { [ | I { } D > I [ { { [ K } } p y I [ { { ",
"I { P } I % [ [ { [ { I y I I , I S { [ [ [ [ [ F y [ I { [ [ P L I u L } I [ { ",
"A A J A y O F K K S I L i , S * t A K K A S F A e u L I L I K P P K 3 S K L L L ",
"C r.*.*.w./ l ( =.4 O w = w < w < s w - f `  .R $.R A R $.y.; w e u u i i u u 3 ",
"h.{ [ [ #.{ [ [ | = u P I I I [ { I { y e ..} [ { [ { [ [ 7.u P L P K I [ I { y ",
"T } I P [ [ [ [ I $ p [ [ F { [ { [ I q 1 } { I { K F P } S p } { I { I { [ L t ",
"K Y I P { { [ I { = :.} [ I { | { I { e w [ [ [ I { [ y I S :...} [ | { { [ [ y ",
"a F L K K L L K P % t.6.5.6.f.5...5.4.! O t 2 e u u t < * = 0.<.! <.u.%.) <.<./ ",
"<._ 2.` :.- u u u i u e u e * 0.! Q e Q ( Q ! ! 9 q./ / x ;.*.=.w.w.5 &.! ( ^ ' ",
"[ [ [ [ L e [ L { { I I I K D 7.{ { [ { { [ { ..p I [ { [ | | I | @.C I } [ [ | ",
"[ [ [ [ A & I [ [ [ { S [ } H J { I P P | I { Y e A I [ { { P I | Y 7 y I [ { { ",
"[ { I [ I = { [ { [ | [ } } 8.A I y I [ [ [ [ [ e L { I { { I P P I * I [ I [ { ",
"i i i y u h 1.7.E $.a.>.` -.t.1 , q J F y A A A % S S P P L S K K J   A K P K P ",
"B ^ j 3 j / j c Q 8 ^ 1.1.U $.a.>.1.3.0.o = = w = w = * $ - n q.w.;.q.( x &./ &.",
"u.[ { [ [ { I { [ W u [ [ [ { { [ } } :.u I [ [ [ [ } y I A q.o.{ I O.| { [ [ Y ",
"J [ I I P { I { Y < , I [ { { { F } } i e [ { I { S S I { y d Y } P I { { [ [ 2 ",
"i [ A I I [ [ [ } * A [ L { [ I I L P u a } [ I { { { I { >.w P I P [ [ { [ [ K ",
"u A 2 L I P I L I = = i i i i t u t i ; c @.#.o.5.O.P +.5.i.% S K K F I K K K A "
};
